<svg xmlns="http://www.w3.org/2000/svg"><defs><symbol id="arrow-left" viewBox="0 0 24 24"><line x1="19" y1="12" x2="5" y2="12"></line><polyline points="12 19 5 12 12 5"></polyline></symbol><symbol id="arrow-right" viewBox="0 0 24 24"><line x1="5" y1="12" x2="19" y2="12"></line><polyline points="12 5 19 12 12 19"></polyline></symbol><symbol id="codepen" viewBox="0 0 24 24"><polygon points="12 2 22 8.5 22 15.5 12 22 2 15.5 2 8.5 12 2"></polygon><line x1="12" y1="22" x2="12" y2="15.5"></line><polyline points="22 8.5 12 15.5 2 8.5"></polyline><polyline points="2 15.5 12 8.5 22 15.5"></polyline><line x1="12" y1="2" x2="12" y2="8.5"></line></symbol><symbol id="codesandbox" viewBox="0 0 24 24"><path d="M21 16V8a2 2 0 0 0-1-1.73l-7-4a2 2 0 0 0-2 0l-7 4A2 2 0 0 0 3 8v8a2 2 0 0 0 1 1.73l7 4a2 2 0 0 0 2 0l7-4A2 2 0 0 0 21 16z"></path><polyline points="7.5 4.21 12 6.81 16.5 4.21"></polyline><polyline points="7.5 19.79 7.5 14.6 3 12"></polyline><polyline points="21 12 16.5 14.6 16.5 19.79"></polyline><polyline points="3.27 6.96 12 12.01 20.73 6.96"></polyline><line x1="12" y1="22.08" x2="12" y2="12"></line></symbol><symbol id="corner-left-up" viewBox="0 0 24 24"><polyline points="14 9 9 4 4 9"></polyline><path d="M20 20h-7a4 4 0 0 1-4-4V4"></path></symbol><symbol id="freeCodeCamp" viewBox="0 0 24 24"><path xmlns="http://www.w3.org/2000/svg" d="M19.885 3.906a.621.621 0 00-.354.12c-.08.08-.161.196-.161.313 0 .2.236.474.673.923 1.822 1.754 2.738 3.903 2.732 6.494-.007 2.867-.97 5.17-2.844 6.954-.394.353-.556.63-.557.867 0 .116.08.237.16.353.076.08.237.162.353.162.434 0 1.04-.512 1.833-1.509 1.542-1.89 2.24-3.978 2.279-6.824.036-2.847-.857-4.777-2.603-6.77-.63-.712-1.153-1.082-1.511-1.083zm-15.769.002c-.358 0-.882.37-1.51 1.083C.858 6.984-.035 8.914.001 11.761c.04 2.846.737 4.933 2.28 6.824.791.997 1.398 1.51 1.832 1.509a.573.573 0 00.352-.162c.08-.116.16-.237.16-.353 0-.237-.162-.514-.556-.866-1.873-1.785-2.837-4.087-2.844-6.955-.006-2.591.91-4.74 2.732-6.494.437-.449.674-.722.673-.923 0-.117-.08-.233-.161-.313a.621.621 0 00-.354-.12zm7.056.895s.655 2.081-2.649 6.727c-3.156 4.433 1.045 7.15 1.432 7.386-.281-.18-2.001-1.5.402-5.423.466-.77 1.076-1.47 1.834-3.041 0 0 .67.946.32 2.998-.523 3.101 2.271 2.214 2.314 2.257.976 1.15-.808 3.17-.917 3.233-.108.061 5.096-3.13 1.399-7.935-.253.253-.582 1.442-1.267 1.266-.684-.174 2.125-3.494-2.868-7.468zM9.955 18.916c.023.016.038.024.038.024l-.038-.024z"/></symbol><symbol id="github" viewBox="0 0 24 24"><path d="M9 19c-5 1.5-5-2.5-7-3m14 6v-3.87a3.37 3.37 0 0 0-.94-2.61c3.14-.35 6.44-1.54 6.44-7A5.44 5.44 0 0 0 20 4.77 5.07 5.07 0 0 0 19.91 1S18.73.65 16 2.48a13.38 13.38 0 0 0-7 0C6.27.65 5.09 1 5.09 1A5.07 5.07 0 0 0 5 4.77a5.44 5.44 0 0 0-1.5 3.78c0 5.42 3.3 6.61 6.44 7A3.37 3.37 0 0 0 9 18.13V22"></path></symbol><symbol id="globe" viewBox="0 0 24 24"><circle cx="12" cy="12" r="10"></circle><line x1="2" y1="12" x2="22" y2="12"></line><path d="M12 2a15.3 15.3 0 0 1 4 10 15.3 15.3 0 0 1-4 10 15.3 15.3 0 0 1-4-10 15.3 15.3 0 0 1 4-10z"></path></symbol><symbol id="linkedin" viewBox="0 0 24 24"><path d="M16 8a6 6 0 0 1 6 6v7h-4v-7a2 2 0 0 0-2-2 2 2 0 0 0-2 2v7h-4v-7a6 6 0 0 1 6-6z"></path><rect x="2" y="9" width="4" height="12"></rect><circle cx="4" cy="4" r="2"></circle></symbol><symbol id="medium" viewBox="0 0 24 24"><path d="M4.21 0A4.201 4.201 0 0 0 0 4.21v15.58A4.201 4.201 0 0 0 4.21 24h15.58A4.201 4.201 0 0 0 24 19.79v-1.093c-.137.013-.278.02-.422.02-2.577 0-4.027-2.146-4.09-4.832a7.592 7.592 0 0 1 .022-.708c.093-1.186.475-2.241 1.105-3.022a3.885 3.885 0 0 1 1.395-1.1c.468-.237 1.127-.367 1.664-.367h.023c.101 0 .202.004.303.01V4.211A4.201 4.201 0 0 0 19.79 0Zm.198 5.583h4.165l3.588 8.435 3.59-8.435h3.864v.146l-.019.004c-.705.16-1.063.397-1.063 1.254h-.003l.003 10.274c.06.676.424.885 1.063 1.03l.02.004v.145h-4.923v-.145l.019-.005c.639-.144.994-.353 1.054-1.03V7.267l-4.745 11.15h-.261L6.15 7.569v9.445c0 .857.358 1.094 1.063 1.253l.02.004v.147H4.405v-.147l.019-.004c.705-.16 1.065-.397 1.065-1.253V6.987c0-.857-.358-1.094-1.064-1.254l-.018-.004zm19.25 3.668c-1.086.023-1.733 1.323-1.813 3.124H24V9.298a1.378 1.378 0 0 0-.342-.047Zm-1.862 3.632c-.1 1.756.86 3.239 2.204 3.634v-3.634z"/></symbol><symbol id="package" viewBox="0 0 24 24"><line x1="16.5" y1="9.4" x2="7.5" y2="4.21"></line><path d="M21 16V8a2 2 0 0 0-1-1.73l-7-4a2 2 0 0 0-2 0l-7 4A2 2 0 0 0 3 8v8a2 2 0 0 0 1 1.73l7 4a2 2 0 0 0 2 0l7-4A2 2 0 0 0 21 16z"></path><polyline points="3.27 6.96 12 12.01 20.73 6.96"></polyline><line x1="12" y1="22.08" x2="12" y2="12"></line></symbol><symbol id="twitter" viewBox="0 0 24 24"><path d="M23 3a10.9 10.9 0 0 1-3.14 1.53 4.48 4.48 0 0 0-7.86 3v1A10.66 10.66 0 0 1 3 4s-4 9 5 13a11.64 11.64 0 0 1-7 2c9 5 20 0 20-11.5a4.5 4.5 0 0 0-.08-.83A7.72 7.72 0 0 0 23 3z"></path></symbol></defs></svg>